<?xml version="1.0" encoding="UTF-8" standalone="no"?>
<!DOCTYPE svg PUBLIC "-//W3C//DTD SVG 1.1//EN"
 "http://www.w3.org/Graphics/SVG/1.1/DTD/svg11.dtd">
<!-- Generated by graphviz version 2.40.1 (20161225.0304)
 -->
<!-- Title: dependencies Pages: 1 -->
<svg width="504pt" height="284pt"
 viewBox="0.00 0.00 504.00 284.00" xmlns="http://www.w3.org/2000/svg" xmlns:xlink="http://www.w3.org/1999/xlink">
<g id="graph0" class="graph" transform="scale(1 1) rotate(0) translate(4 280)">
<title>dependencies</title>
<polygon fill="#ffffff" stroke="transparent" points="-4,4 -4,-280 500,-280 500,4 -4,4"/>
<text text-anchor="start" x="227.0091" y="-42.4" font-family="sans-serif" font-weight="bold" font-size="14.00" fill="#000000">Legend</text>
<polygon fill="#ffffb3" stroke="transparent" points="14,-10 14,-30 34,-30 34,-10 14,-10"/>
<text text-anchor="start" x="37.629" y="-15.4" font-family="sans-serif" font-size="14.00" fill="#000000"> &#160;Declarations</text>
<polygon fill="#8dd3c7" stroke="transparent" points="127,-10 127,-30 147,-30 147,-10 127,-10"/>
<text text-anchor="start" x="150.7251" y="-15.4" font-family="sans-serif" font-size="14.00" fill="#000000"> &#160;Module</text>
<polygon fill="#80b1d3" stroke="transparent" points="213,-10 213,-30 233,-30 233,-10 213,-10"/>
<text text-anchor="start" x="236.7812" y="-15.4" font-family="sans-serif" font-size="14.00" fill="#000000"> &#160;Bootstrap</text>
<polygon fill="#fdb462" stroke="transparent" points="310,-10 310,-30 330,-30 330,-10 310,-10"/>
<text text-anchor="start" x="333.6732" y="-15.4" font-family="sans-serif" font-size="14.00" fill="#000000"> &#160;Providers</text>
<polygon fill="#fb8072" stroke="transparent" points="406,-10 406,-30 426,-30 426,-10 406,-10"/>
<text text-anchor="start" x="429.7258" y="-15.4" font-family="sans-serif" font-size="14.00" fill="#000000"> &#160;Exports</text>
<g id="clust1" class="cluster">
<title>cluster_FbLibraryModule</title>
<polygon fill="none" stroke="#000000" stroke-dasharray="1,5" points="96,-70 96,-268 400,-268 400,-70 96,-70"/>
</g>
<g id="clust2" class="cluster">
<title>cluster_FbLibraryModule_declarations</title>
<polygon fill="none" stroke="#000000" points="108,-78 108,-130 388,-130 388,-78 108,-78"/>
</g>
<g id="clust6" class="cluster">
<title>cluster_FbLibraryModule_exports</title>
<polygon fill="none" stroke="#000000" points="104,-208 104,-260 392,-260 392,-208 104,-208"/>
</g>
<!-- CardComponent -->
<g id="node1" class="node">
<title>CardComponent</title>
<polygon fill="#ffffb3" stroke="#000000" points="380.0452,-122 271.9548,-122 271.9548,-86 380.0452,-86 380.0452,-122"/>
<text text-anchor="middle" x="326" y="-99.8" font-family="Times,serif" font-size="14.00" fill="#000000">CardComponent</text>
</g>
<!-- FbLibraryModule -->
<g id="node3" class="node">
<title>FbLibraryModule</title>
<polygon fill="#8dd3c7" stroke="#000000" points="244.3118,-187 241.3118,-191 220.3118,-191 217.3118,-187 127.6882,-187 127.6882,-151 244.3118,-151 244.3118,-187"/>
<text text-anchor="middle" x="186" y="-164.8" font-family="Times,serif" font-size="14.00" fill="#000000">FbLibraryModule</text>
</g>
<!-- CardComponent&#45;&gt;FbLibraryModule -->
<g id="edge1" class="edge">
<title>CardComponent&#45;&gt;FbLibraryModule</title>
<path fill="none" stroke="#000000" d="M344.174,-122.0225C344.174,-139.3734 344.174,-163 344.174,-163 344.174,-163 254.4488,-163 254.4488,-163"/>
<polygon fill="#000000" stroke="#000000" points="254.4488,-159.5001 244.4488,-163 254.4487,-166.5001 254.4488,-159.5001"/>
</g>
<!-- FbLibraryComponent -->
<g id="node2" class="node">
<title>FbLibraryComponent</title>
<polygon fill="#ffffb3" stroke="#000000" points="254.094,-122 115.906,-122 115.906,-86 254.094,-86 254.094,-122"/>
<text text-anchor="middle" x="185" y="-99.8" font-family="Times,serif" font-size="14.00" fill="#000000">FbLibraryComponent</text>
</g>
<!-- FbLibraryComponent&#45;&gt;FbLibraryModule -->
<g id="edge2" class="edge">
<title>FbLibraryComponent&#45;&gt;FbLibraryModule</title>
<path fill="none" stroke="#000000" d="M186,-122.1061C186,-122.1061 186,-140.991 186,-140.991"/>
<polygon fill="#000000" stroke="#000000" points="182.5001,-140.9909 186,-150.991 189.5001,-140.991 182.5001,-140.9909"/>
</g>
<!-- CardComponent  -->
<g id="node4" class="node">
<title>CardComponent </title>
<polygon fill="#fb8072" stroke="#000000" points="384.0442,-252 271.9558,-252 271.9558,-216 384.0442,-216 384.0442,-252"/>
<text text-anchor="middle" x="328" y="-229.8" font-family="Times,serif" font-size="14.00" fill="#000000">CardComponent </text>
</g>
<!-- FbLibraryModule&#45;&gt;CardComponent  -->
<g id="edge3" class="edge">
<title>FbLibraryModule&#45;&gt;CardComponent </title>
<path fill="none" stroke="#000000" stroke-dasharray="5,2" d="M244.1778,-175C275.6197,-175 308.076,-175 308.076,-175 308.076,-175 308.076,-205.9775 308.076,-205.9775"/>
<polygon fill="#000000" stroke="#000000" points="304.5761,-205.9774 308.076,-215.9775 311.5761,-205.9775 304.5761,-205.9774"/>
</g>
<!-- FbLibraryComponent  -->
<g id="node5" class="node">
<title>FbLibraryComponent </title>
<polygon fill="#fb8072" stroke="#000000" points="253.5946,-252 112.4054,-252 112.4054,-216 253.5946,-216 253.5946,-252"/>
<text text-anchor="middle" x="183" y="-229.8" font-family="Times,serif" font-size="14.00" fill="#000000">FbLibraryComponent </text>
</g>
<!-- FbLibraryModule&#45;&gt;FbLibraryComponent  -->
<g id="edge4" class="edge">
<title>FbLibraryModule&#45;&gt;FbLibraryComponent </title>
<path fill="none" stroke="#000000" stroke-dasharray="5,2" d="M186,-187.1061C186,-187.1061 186,-205.991 186,-205.991"/>
<polygon fill="#000000" stroke="#000000" points="182.5001,-205.9909 186,-215.991 189.5001,-205.991 182.5001,-205.9909"/>
</g>
</g>
</svg>
